<?xml version="1.0" encoding="UTF-8" standalone="no"?>
<!-- Created with Inkscape (http://www.inkscape.org/) -->

<svg
   xmlns:dc="http://purl.org/dc/elements/1.1/"
   xmlns:cc="http://creativecommons.org/ns#"
   xmlns:rdf="http://www.w3.org/1999/02/22-rdf-syntax-ns#"
   xmlns:svg="http://www.w3.org/2000/svg"
   xmlns="http://www.w3.org/2000/svg"
   xmlns:sodipodi="http://sodipodi.sourceforge.net/DTD/sodipodi-0.dtd"
   xmlns:inkscape="http://www.inkscape.org/namespaces/inkscape"
   width="98.97937mm"
   height="98.97937mm"
   viewBox="0 0 350.7143 350.7143"
   id="svg6432"
   version="1.1"
   inkscape:version="0.91 r13725"
   sodipodi:docname="mathematical-icon.svg">
  <defs
     id="defs6434" />
  <sodipodi:namedview
     id="base"
     pagecolor="#ffffff"
     bordercolor="#666666"
     borderopacity="1.0"
     inkscape:pageopacity="0.0"
     inkscape:pageshadow="2"
     inkscape:zoom="0.7"
     inkscape:cx="14.845707"
     inkscape:cy="140.23994"
     inkscape:document-units="px"
     inkscape:current-layer="layer1"
     showgrid="false"
     fit-margin-top="0"
     fit-margin-left="0"
     fit-margin-right="0"
     fit-margin-bottom="0"
     inkscape:window-width="1440"
     inkscape:window-height="851"
     inkscape:window-x="0"
     inkscape:window-y="1"
     inkscape:window-maximized="1" />
  <metadata
     id="metadata6437">
    <rdf:RDF>
      <cc:Work
         rdf:about="">
        <dc:format>image/svg+xml</dc:format>
        <dc:type
           rdf:resource="http://purl.org/dc/dcmitype/StillImage" />
        <dc:title />
      </cc:Work>
    </rdf:RDF>
  </metadata>
  <g
     inkscape:label="Ebene 1"
     inkscape:groupmode="layer"
     id="layer1"
     transform="translate(103.78572,-260.57648)">
    <rect
       style="opacity:1;fill:none;fill-opacity:1;stroke:#000000;stroke-width:15;stroke-linecap:round;stroke-linejoin:round;stroke-miterlimit:4;stroke-dasharray:none;stroke-dashoffset:0;stroke-opacity:1"
       id="rect6991"
       width="261.42856"
       height="335.71429"
       x="-58.285721"
       y="268.07648" />
    <g
       style="font-style:normal;font-weight:normal;font-size:40px;line-height:125%;font-family:sans-serif;letter-spacing:0px;word-spacing:0px;fill:#000000;fill-opacity:1;stroke:none;stroke-width:1px;stroke-linecap:butt;stroke-linejoin:miter;stroke-opacity:1"
       id="text3351">
      <path
         sodipodi:type="inkscape:offset"
         inkscape:radius="0"
         inkscape:original="M 162.01953 294.96289 C 157.97027 294.95077 155.36204 296.67876 154.56445 302.12305 C 157.66154 297.27438 164.43962 298.8557 169.7207 298.60742 L 161.45312 307.71875 C 173.85173 309.97233 165.80037 336.06731 153.43164 322.78711 C 151.35799 309.63736 146.56496 328.87318 156.75977 327.62695 C 169.00562 330.69045 177.64623 310.15118 163.82227 306.53711 L 173.08008 296.53711 C 172.79624 294.1871 168.2932 296.10022 166.53711 295.48242 C 164.88081 295.16517 163.36928 294.96693 162.01953 294.96289 z M 22.796875 315.44727 C 21.079604 315.37562 19.44403 316.5039 18.787109 318.06641 C 17.139779 330.68728 34.996197 318.37349 22.796875 315.44727 z M 129.66602 326.30664 C 128.38461 326.30132 127.08712 326.46479 125.80273 326.81445 C 115.10796 326.04334 101.56347 347.44424 117.75586 347.52734 C 106.65552 337.84748 130.65604 317.611 137.75195 336.41211 C 141.63668 350.22395 129.9145 361.49712 120.43945 369.64844 C 114.78635 376.48958 103.36329 380.11407 99.921875 387.5918 C 112.45967 383.82069 125.37035 389.3162 138.00781 386.93164 L 142.47461 373.60156 C 138.78794 376.96174 135.79939 382.67589 128.88867 381.18164 C 123.16301 379.40708 103.28995 383.47579 114.05273 377.36914 C 125.5982 367.91044 141.42123 359.79575 144.73633 344.00781 C 146.84888 334.57917 138.63585 326.34387 129.66602 326.30664 z M 20.673828 344.1582 L 13.496094 347.16211 L 9.1210938 371.46094 C 3.5746804 381.1713 13.98535 395.00914 21.287109 381.71875 C 29.407647 371.27307 10.859357 391.21652 12.617188 377.77734 C 13.946042 366.3175 17.996956 355.36319 20.673828 344.1582 z M 28.148438 476.24609 C 17.381731 475.46995 -2.9042783 477.05421 0.11132812 492.54688 C 6.4339789 506.89244 21.057472 515.01016 32.246094 525.21289 C 20.151869 536.37542 7.9027549 547.36981 -4.4492188 558.24609 C -9.7275172 563.48324 -18.016833 566.91428 -17.339844 575.45703 C 0.61038747 573.75321 18.689394 572.87156 36.695312 574.23047 C 44.411815 576.97261 48.215607 573.74351 49.53125 566.375 C 29.439378 565.22078 9.0417573 564.27854 -10.820312 568.20703 C 3.5212657 552.97651 19.554711 539.36725 36.296875 526.91016 C 46.655002 519.5685 25.972111 514.57634 22.537109 507.63672 C 16.590898 500.83761 1.2918294 490.41163 9.3574219 480.97461 C 22.989625 476.17044 38.862536 479.77329 50.849609 487.41992 C 51.786991 486.28611 52.724674 485.15154 53.662109 484.01758 C 54.564979 477.479 35.142387 477.31373 28.148438 476.24609 z M 135.87891 532.44727 C 129.21964 532.54148 122.57496 533.10448 116.03516 534.29492 C 111.94734 542.15407 119.58049 537.81655 124.82422 537.81055 L 116.0293 567.99219 C 113.94851 572.64121 113.46875 576.09031 119.69727 574.50586 L 126.75977 543.61523 C 126.28523 533.49705 138.59219 538.66766 145.03906 537.73828 C 142.7116 545.11467 139.93008 552.37369 138.11328 559.89844 C 132.53536 569.97549 144.16986 581.82847 150.82422 569.17773 C 158.24313 559.04029 143.99536 576.27148 142.38477 567.71289 C 142.41861 558.98692 145.17274 550.44486 146.47656 541.80859 C 146.00929 534.36686 155.99891 542.07598 155.80469 533.41602 C 149.21104 532.72762 142.53817 532.35305 135.87891 532.44727 z "
         style="font-style:normal;font-variant:normal;font-weight:normal;font-stretch:normal;font-size:150px;font-family:'Savoye LET';-inkscape-font-specification:'Savoye LET'"
         id="path3357"
         d="m 162.01953,294.96289 c -4.04926,-0.0121 -6.65749,1.71587 -7.45508,7.16016 3.09709,-4.84867 9.87517,-3.26735 15.15625,-3.51563 l -8.26758,9.11133 c 12.39861,2.25358 4.34725,28.34856 -8.02148,15.06836 -2.07365,-13.14975 -6.86668,6.08607 3.32813,4.83984 12.24585,3.0635 20.88646,-17.47577 7.0625,-21.08984 l 9.25781,-10 c -0.28384,-2.35001 -4.78688,-0.43689 -6.54297,-1.05469 -1.6563,-0.31725 -3.16783,-0.51549 -4.51758,-0.51953 z M 22.796875,315.44727 c -1.717271,-0.0716 -3.352845,1.05663 -4.009766,2.61914 -1.64733,12.62087 16.209088,0.30708 4.009766,-2.61914 z m 106.869145,10.85937 c -1.28141,-0.005 -2.5789,0.15815 -3.86329,0.50781 -10.69477,-0.77111 -24.23926,20.62979 -8.04687,20.71289 -11.10034,-9.67986 12.90018,-29.91634 19.99609,-11.11523 3.88473,13.81184 -7.83745,25.08501 -17.3125,33.23633 -5.6531,6.84114 -17.07616,10.46563 -20.517575,17.94336 12.537795,-3.77111 25.448475,1.7244 38.085935,-0.66016 l 4.4668,-13.33008 c -3.68667,3.36018 -6.67522,9.07433 -13.58594,7.58008 -5.72566,-1.77456 -25.59872,2.29415 -14.83594,-3.8125 11.54547,-9.4587 27.3685,-17.57339 30.6836,-33.36133 2.11255,-9.42864 -6.10048,-17.66394 -15.07031,-17.70117 z m -108.992192,17.85156 -7.177734,3.00391 -4.3750002,24.29883 c -5.5464134,9.71036 4.8642562,23.5482 12.1660152,10.25781 8.120538,-10.44568 -10.427752,9.49777 -8.669921,-3.94141 1.328854,-11.45984 5.379768,-22.41415 8.05664,-33.61914 z m 7.47461,132.08789 c -10.766707,-0.77614 -31.0527163,0.80812 -28.03710988,16.30079 6.32265078,14.34556 20.94614388,22.46328 32.13476588,32.66601 -12.094225,11.16253 -24.3433391,22.15692 -36.6953128,33.0332 -5.2782984,5.23715 -13.5676142,8.66819 -12.8906252,17.21094 17.95023147,-1.70382 36.029238,-2.58547 54.035156,-1.22656 7.716503,2.74214 11.520295,-0.48696 12.835938,-7.85547 -20.091872,-1.15422 -40.4894927,-2.09646 -60.351562,1.83203 C 3.5212657,552.97651 19.554711,539.36725 36.296875,526.91016 46.655002,519.5685 25.972111,514.57634 22.537109,507.63672 16.590898,500.83761 1.2918294,490.41163 9.3574219,480.97461 c 13.6322031,-4.80417 29.5051141,-1.20132 41.4921871,6.44531 0.937382,-1.13381 1.875065,-2.26838 2.8125,-3.40234 0.90287,-6.53858 -18.519722,-6.70385 -25.513671,-7.77149 z m 107.730472,56.20118 c -6.65927,0.0942 -13.30395,0.65721 -19.84375,1.84765 -4.08782,7.85915 3.54533,3.52163 8.78906,3.51563 l -8.79492,30.18164 c -2.08079,4.64902 -2.56055,8.09812 3.66797,6.51367 l 7.0625,-30.89063 c -0.47454,-10.11818 11.83242,-4.94757 18.27929,-5.87695 -2.32746,7.37639 -5.10898,14.63541 -6.92578,22.16016 -5.57792,10.07705 6.05658,21.93003 12.71094,9.27929 7.41891,-10.13744 -6.82886,7.09375 -8.43945,-1.46484 0.0338,-8.72597 2.78797,-17.26803 4.09179,-25.9043 -0.46727,-7.44173 9.52235,0.26739 9.32813,-8.39257 -6.59365,-0.6884 -13.26652,-1.06297 -19.92578,-0.96875 z" />
    </g>
    <text
       xml:space="preserve"
       style="font-style:normal;font-weight:normal;font-size:40px;line-height:125%;font-family:sans-serif;letter-spacing:0px;word-spacing:0px;fill:#000000;fill-opacity:1;stroke:none;stroke-width:1px;stroke-linecap:butt;stroke-linejoin:miter;stroke-opacity:1"
       x="447.64288"
       y="367.00507"
       id="text3355"
       sodipodi:linespacing="125%"><tspan
         sodipodi:role="line"
         id="tspan3357"
         x="447.64288"
         y="367.00507" /></text>
  </g>
</svg>
